# Created by Kenney (www.kenney.nl)

mtllib snowmanFancy.mtl

g snowmanFancy

v 0.116739 0.705564 0
v 0.092836 0.705564 0
v 0.058369 0.705564 0.101099
v 0.046418 0.705564 0.080398
v -0.058369 0.705564 0.101099
v -0.046418 0.705564 0.080398
v -0.092836 0.705564 0
v -0.116739 0.705564 0
v 0.058369 0.705564 -0.101099
v 0.046418 0.705564 -0.080398
v -0.058369 0.705564 -0.101099
v -0.046418 0.705564 -0.080398
v 0.058369 0.7304159 -0.101099
v 0.116739 0.7304159 0
v 0.075458 0.8381081 0
v 0.075458 0.7304159 0
v 0.037729 0.8381081 0.06534901
v 0.037729 0.7304159 0.06534901
v 0.037729 0.7304159 -0.06534901
v -0.058369 0.7304159 -0.101099
v -0.037729 0.7304159 -0.06534901
v -0.075458 0.7304159 0
v -0.116739 0.7304159 0
v 0.058369 0.7304159 0.101099
v -0.058369 0.7304159 0.101099
v -0.037729 0.7304159 0.06534901
v -0.037729 0.8381081 0.06534901
v -0.075458 0.8381081 0
v 0.037729 0.8381081 -0.06534901
v -0.037729 0.8381081 -0.06534901
v 0.144586 0.555776 0
v 0.109746 0.555776 0
v 0.084628 0.555776 -0.10385
v 0.054873 0.555776 -0.095043
v 0.047622 0.555776 -0.125215
v -0.054873 0.555776 -0.095043
v -0.072293 0.555776 -0.125215
v -0.109746 0.555776 0
v -0.144586 0.555776 0
v 0.072293 0.555776 0.125215
v 0.054873 0.555776 0.095043
v -0.021781 0.555776 0.125215
v -0.054873 0.555776 0.095043
v -0.10844 0.555776 0.062608
v -0.146035 0.54487 0
v -0.076175 0.497324 0.131938
v 0.146035 0.54487 0
v 0.110672 0.527603 0.065221
v 0.082401 0.403567 0.142722
v 0.059504 0.510337 -0.130441
v 0.083214 0.510337 -0.116753
v -0.07531 0.510337 -0.130441
v 0.2158 0.3328 0
v 0.26 0 0
v 0.144275 0.3328 0.123885
v 0.13 0 0.225167
v 0.114045 0.240268 0.197531
v 0.05941 0.3328 0.186888
v -0.110341 0.296047 -0.191116
v -0.066594 0.3328 -0.186888
v -0.155842 0.3328 -0.10385
v 0.015083 0.611363 0.089608
v 0.017263 0.649977 0.085833
v -0.017263 0.649977 0.085833
v -0.015083 0.611363 0.089608
v 0.1742 0.3328 0
v 0.1079 0.3328 -0.186888
v 0.0871 0.3328 -0.150862
v -0.0871 0.3328 -0.150862
v -0.1742 0.3328 0
v -0.2158 0.3328 0
v 0.0871 0.3328 0.150862
v -0.0871 0.3328 0.150862
v -0.1079 0.3328 0.186888
v -0.26 0 0
v -0.13 0 0.225167
v -0.13 0 -0.225167
v 0.13 0 -0.225167
v 0.08069099 0.429314 -0.139761
v -0.156742 0.464247 0
v -0.138729 0.467887 0.030362
v -0.130084 0.525596 0.03206
v -0.149459 0.519084 0
v -0.138729 0.467887 -0.030362
v -0.130084 0.525596 -0.03206
v 0.130084 0.525596 -0.03206
v 0.149459 0.519084 0
v 0.138729 0.467887 -0.030362
v 0.156742 0.464247 0
v 0.130084 0.525596 0.03206
v 0.138729 0.467887 0.030362
v -0.319417 0.414321 -0.00875
v -0.311967 0.432882 -0.0175
v -0.342618 0.423634 -0.00875
v -0.335168 0.442194 -0.0175
v -0.319732 0.46186 -0.0175
v -0.311967 0.432882 0.0175
v -0.319417 0.414321 0.00875
v -0.34673 0.459855 -0.010325
v -0.335464 0.474209 -0.010325
v -0.34673 0.459855 0.010325
v -0.335464 0.474209 0.010325
v -0.335168 0.442194 0.0175
v -0.342618 0.423634 0.00875
v 0.319732 0.46186 -0.0175
v 0.319732 0.46186 0.0175
v -0.319732 0.46186 0.0175
v 0.335168 0.442194 -0.0175
v 0.335168 0.442194 0.0175
v 0.34673 0.459855 -0.010325
v 0.34673 0.459855 0.010325
v 0.319417 0.414321 -0.00875
v 0.342618 0.423634 -0.00875
v 0.311967 0.432882 -0.0175
v 0.335464 0.474209 0.010325
v 0.311967 0.432882 0.0175
v 0.342618 0.423634 0.00875
v 0.319417 0.414321 0.00875
v 0.335464 0.474209 -0.010325
v 0.010474 0.625047 0.168652
v -0.010474 0.625047 0.168652
v 0.011988 0.651862 0.16603
v -0.011988 0.651862 0.16603

vn 0 -1 0
vn 0.8660237 0 -0.500003
vn 0.8660269 0 0.4999974
vn 0 1 0
vn 0 0 1
vn -0.8660237 0 -0.500003
vn 0 0 -1
vn -0.8660269 0 0.4999974
vn 0.8660237 0 0.500003
vn -0.8660237 0 0.500003
vn 0.8660269 0 -0.4999974
vn -0.8660269 0 -0.4999974
vn -0.8603556 0.1142573 0.4967228
vn 0.8603507 0.1142697 0.4967283
vn 0.4872271 0.224476 -0.8439315
vn -0.4936506 0.5379704 0.6832985
vn 0.8603502 0.1142808 -0.4967267
vn 3.301097E-07 0.1142663 0.9934502
vn 0 0.1142581 -0.9934511
vn -0.8603525 0.114257 -0.4967282
vn 0.8603535 0.1142658 0.4967245
vn 0.5447353 0.4060325 0.7337582
vn -0.5075686 0.666914 -0.5455271
vn 0.8619156 0.09730501 -0.4976276
vn 0 0.09730701 0.9952544
vn -0.8619156 0.09730501 0.4976276
vn 0 0.09730754 -0.9952544
vn -0.8603532 0.1142661 0.4967249
vn 9.474767E-07 0.1142672 -0.9934501
vn 0.8603532 0.1142661 -0.4967249
vn -0.8619156 0.09730501 -0.4976276
vn 0.8619156 0.09730501 0.4976276
vn 0 0.1142677 0.99345
vn -0.8603538 0.1142657 -0.4967239
vn 0.4872132 0.2244806 -0.8439382
vn 6.323847E-07 0.1142697 0.9934497
vn -0.8603538 0.1142655 0.4967239
vn -9.380827E-07 0.1142704 -0.9934497
vn -0.8603522 0.1142669 -0.4967264
vn 0.8603542 0.1142652 -0.4967233
vn 0.8603535 0.1142664 0.4967243
vn -0.1493048 -0.3719753 -0.9161564
vn 0.1980598 -0.98019 0
vn 0.9280346 -0.3724938 0
vn -0.7866415 0.6174099 0
vn -0.9280277 0.3725111 0
vn 0.3185653 0.947901 0
vn -0.3185653 0.947901 0
vn -0.1493048 -0.3719753 0.9161564
vn -0.3725145 -0.9280264 0
vn 0.8366565 -0.5477279 0
vn -0.07024469 -0.01882274 -0.9973522
vn 0.1493048 -0.3719753 -0.9161564
vn 0.2656328 0.2084936 0.9412596
vn -0.2656328 0.2084936 0.9412596
vn -0.1980598 -0.98019 0
vn 0.9280277 0.3725111 0
vn -0.9280346 -0.3724938 0
vn 0.6174549 0.7866063 0
vn -0.07024469 -0.01882274 0.9973522
vn -0.8366565 -0.5477279 0
vn 0.7866415 0.6174099 0
vn 0.1493048 -0.3719753 0.9161564
vn 0.07024469 -0.01882274 0.9973522
vn 0.07024469 -0.01882274 -0.9973522
vn 0.2656328 0.2084936 -0.9412596
vn 0.3725145 -0.9280264 0
vn -0.2656328 0.2084936 -0.9412596
vn -0.6174549 0.7866063 0
vn 0 0.09731696 0.9952534
vn -0.9965314 -0.04973908 0.06671714
vn 0 -0.9853436 0.1705815
vn 0.9965314 -0.04973908 0.06671714
vn 0 0.9997239 -0.02349813

vt 4.596024 0
vt 3.654961 0
vt 2.297992 3.980276
vt 1.82748 3.165276
vt -2.297992 3.980276
vt -1.82748 3.165276
vt -3.654961 0
vt -4.596024 0
vt 2.297992 -3.980276
vt 1.82748 -3.165276
vt -2.297992 -3.980276
vt -1.82748 -3.165276
vt 2.29801 28.75653
vt 2.29801 27.77811
vt -2.298026 28.75653
vt -2.298026 27.77811
vt 1.485386 32.99638
vt 1.485386 28.75653
vt -1.485417 32.99638
vt -1.485417 28.75653
vt -4.596024 -2.424207E-30
vt -2.970787 -2.424207E-30
vt -1.485394 -2.572795
vt 1.485394 -2.572795
vt 2.970787 -2.424207E-30
vt 4.596024 -2.424207E-30
vt -1.485394 2.572795
vt 1.485394 2.572795
vt 1.485394 28.75653
vt -1.485394 28.75653
vt 1.485394 32.99638
vt -1.485394 32.99638
vt -2.29801 27.77811
vt -2.29801 28.75653
vt 2.298026 27.77811
vt 2.298026 28.75653
vt 2.297992 27.77811
vt -2.297992 27.77811
vt 2.297992 28.75653
vt -2.297992 28.75653
vt -1.485386 28.75653
vt -1.485386 32.99638
vt 1.485417 28.75653
vt 1.485417 32.99638
vt -2.970787 0
vt 2.970787 0
vt -5.692362 0
vt -4.320709 0
vt -3.331811 -4.088583
vt -2.160354 -3.74185
vt -1.874882 -4.929724
vt 2.160354 -3.74185
vt 2.846181 -4.929724
vt 4.320709 0
vt 5.692362 0
vt -2.846181 4.929724
vt -2.160354 3.74185
vt 0.8575197 4.929724
vt 2.160354 3.74185
vt 4.269291 2.464882
vt -2.874689 20.74219
vt -2.846165 21.17439
vt 2.998999 18.85796
vt 2.05864E-05 21.17439
vt 2.846201 21.1743
vt 2.874725 20.7421
vt -2.846156 21.1743
vt -0.04513884 20.05782
vt -3.244087 15.14231
vt 0.5388336 18.31797
vt -0.5390192 18.31796
vt 0.8410884 20.15375
vt -0.8412201 20.15375
vt 2.191814 16.02496
vt 0.6109403 13.295
vt -2.01718 16.02496
vt 2.342665 19.37348
vt -2.874719 20.74202
vt 1.874897 21.17422
vt -2.846195 21.17422
vt 3.244132 15.14234
vt -2.999017 18.85789
vt 2.846179 21.17433
vt -0.8575213 21.17433
vt 2.964961 19.37366
vt -2.342677 19.37366
vt 2.846181 21.17439
vt -1.874882 21.17439
vt -2.964954 19.37367
vt -2.846161 21.17439
vt 2.87472 20.74219
vt 2.846196 21.1744
vt 4.248026 12.1758
vt 5.118104 -1.012947
vt -1.383865 12.1758
vt -5.11813 -1.012947
vt -4.489941 8.508788
vt 1.653386 9.008871
vt -1.03053 5.022486
vt -2.507837 9.008871
vt -1.944925 3.037563
vt -3.092484 4.979452
vt 1.706875 4.979452
vt 2.160359 21.41301
vt -2.160355 21.41301
vt 1.827468 27.33829
vt -1.827481 27.33829
vt -2.160354 21.413
vt 0.593819 23.6119
vt 2.160354 21.413
vt 1.82748 27.33828
vt 0.6796457 25.13938
vt -0.6796456 25.13938
vt -0.5938188 23.6119
vt -1.82748 27.33828
vt -8.496063 0
vt -6.858268 0
vt -4.248032 -7.357795
vt -3.429134 -5.939449
vt 2.621811 -7.357795
vt 3.429134 -5.939449
vt 6.135512 -4.088583
vt 6.858268 0
vt 8.496063 0
vt -5.680118 4.877362
vt -3.429134 5.939449
vt -2.338976 7.357795
vt 3.429134 5.939449
vt 4.248032 7.357795
vt 2.160354 21.413
vt -2.160354 21.413
vt 1.82748 27.33828
vt -1.82748 27.33828
vt -5.118109 -1.01295
vt -4.24803 12.1758
vt 5.118125 -1.01295
vt 4.248023 12.1758
vt 5.118119 -1.01296
vt -5.118102 -1.012961
vt 4.344141 10.71928
vt -4.248024 12.17579
vt 2.621818 12.17579
vt -2.160359 21.41301
vt -1.827468 27.33829
vt 2.160355 21.41301
vt 1.827481 27.33829
vt 5.118108 -1.012965
vt -5.118112 -1.012965
vt 4.489959 8.508773
vt -4.248033 12.17578
vt 2.338975 12.17578
vt 10.23622 0
vt 5.11811 -8.864842
vt 5.11811 8.864842
vt -5.11811 8.864842
vt -5.11811 -8.864842
vt -10.23622 0
vt -5.118136 -1.012945
vt -4.344137 10.71929
vt 5.118098 -1.012946
vt -0.4730709 12.1758
vt 4.248021 12.1758
vt -0.0001941967 15.04449
vt 3.42913 12.33784
vt -3.429138 12.33784
vt -3.429126 12.33787
vt -3.085465 17.54707
vt 3.429155 12.33787
vt -1.695671 17.69132
vt -1.4676 19.97831
vt -2.942099 19.72024
vt 3.429128 12.33783
vt -3.429139 12.33784
vt -3.176816 16.16265
vt -3.429137 12.33786
vt 3.429143 12.33786
vt 1.695687 17.69131
vt 1.467615 19.9783
vt 3.085481 17.54706
vt 2.942115 19.72023
vt -1.467596 19.97831
vt -2.942095 19.72024
vt -1.695667 17.69133
vt -3.429121 12.33787
vt 3.176826 16.16269
vt 3.42916 12.33788
vt -3.085461 17.54707
vt 2.942102 19.72024
vt 1.467603 19.9783
vt -3.429152 12.33787
vt 1.695674 17.69132
vt 3.429129 12.33787
vt 3.085468 17.54706
vt 12.35632 16.02023
vt 12.01143 16.80747
vt 13.25785 16.41523
vt 12.91296 17.20242
vt 13.19559 17.40921
vt 12.28217 17.0426
vt 12.58787 18.18346
vt -1.195354 -1.705164
vt 0 -2.428672
vt -0.6889764 -8.663402
vt 0.6889764 -8.663402
vt 1.195354 -1.705164
vt 0.6889764 11.24109
vt 0.3444882 10.45368
vt -0.6889764 11.24109
vt -0.3444882 10.45368
vt -0.4064961 5.81364
vt -0.4064961 6.532033
vt 0.4064961 5.81364
vt 0.4064961 6.532033
vt -0.6889764 11.24073
vt 0.6889764 11.24073
vt -0.3444882 10.45335
vt 0.3444882 10.45335
vt 0.6889764 -6.139437
vt -0.6889764 -6.139437
vt 1.262205 1.737397
vt 2.848372E-21 0.9326699
vt -1.262205 1.737397
vt 0 0.9326699
vt -12.35632 16.02023
vt -13.25785 16.41523
vt -12.01143 16.80747
vt -12.91296 17.20242
vt 0.3444882 17.74677
vt -0.3444882 17.74677
vt 0.3444882 18.73104
vt -0.3444882 18.73104
vt 0.6889764 21.79313
vt -0.6889764 21.79313
vt 0.4064961 22.62419
vt -0.4064961 22.62419
vt 12.20341 17.06876
vt 5.364293 18.44715
vt 12.50836 18.20983
vt 5.020083 20.71956
vt 12.51244 16.14115
vt 11.92757 16.9328
vt 13.02725 16.85209
vt 12.60038 17.4299
vt -12.51244 16.14115
vt -13.02725 16.85209
vt -11.92757 16.9328
vt -12.60038 17.4299
vt -12.28217 17.0426
vt -13.19559 17.40921
vt -12.58787 18.18346
vt 0.6889764 21.12917
vt -0.6889764 21.12917
vt 0.4064961 21.91656
vt -0.4064961 21.91656
vt -12.20341 17.06876
vt -12.50836 18.20983
vt -5.364293 18.44715
vt -5.020083 20.71956
vt 0.4123622 23.84518
vt -0.4123622 23.84518
vt 0.4719685 24.90592
vt -0.4719685 24.90592
vt 3.326304 25.60293
vt 6.490487 25.67723
vt 3.480327 24.08081
vt 6.597466 24.62022
vt 0.5938189 7.581963
vt -0.5938189 7.581963
vt 0.4123622 10.74022
vt -0.4123622 10.74022
vt -3.326304 25.60293
vt -3.480327 24.08081
vt -6.490487 25.67723
vt -6.597466 24.62022
vt -0.6796457 3.979628
vt -0.4719685 7.137862
vt 0.6796457 3.979628
vt 0.4719685 7.137862

usemtl trainGrey

f 3/3/1 2/2/1 1/1/1
f 2/2/1 3/3/1 4/4/1
f 4/4/1 3/3/1 5/5/1
f 4/4/1 5/5/1 6/6/1
f 6/6/1 5/5/1 7/7/1
f 7/7/1 5/5/1 8/8/1
f 2/2/1 9/9/1 1/1/1
f 9/9/1 2/2/1 10/10/1
f 9/9/1 10/10/1 11/11/1
f 11/11/1 7/7/1 8/8/1
f 11/11/1 10/10/1 12/12/1
f 11/11/1 12/12/1 7/7/1
f 14/15/2 9/14/2 13/13/2
f 9/14/2 14/15/2 1/16/2
f 17/19/3 16/18/3 15/17/3
f 16/18/3 17/19/3 18/20/3
f 13/11/4 16/22/4 14/21/4
f 16/22/4 13/11/4 19/23/4
f 19/23/4 13/11/4 20/9/4
f 19/23/4 20/9/4 21/24/4
f 21/24/4 20/9/4 22/25/4
f 22/25/4 20/9/4 23/26/4
f 16/22/4 24/5/4 14/21/4
f 24/5/4 16/22/4 18/27/4
f 24/5/4 18/27/4 25/3/4
f 25/3/4 22/25/4 23/26/4
f 25/3/4 18/27/4 26/28/4
f 25/3/4 26/28/4 22/25/4
f 17/31/5 26/30/5 18/29/5
f 26/30/5 17/31/5 27/32/5
f 8/35/6 20/34/6 11/33/6
f 20/34/6 8/35/6 23/36/6
f 20/39/7 9/38/7 11/37/7
f 9/38/7 20/39/7 13/40/7
f 26/43/8 28/42/8 22/41/8
f 28/42/8 26/43/8 27/44/8
f 24/34/9 1/35/9 14/36/9
f 1/35/9 24/34/9 3/33/9
f 29/23/4 17/27/4 15/45/4
f 17/27/4 29/23/4 30/24/4
f 17/27/4 30/24/4 27/28/4
f 27/28/4 30/24/4 28/46/4
f 5/14/10 23/15/10 8/16/10
f 23/15/10 5/14/10 25/13/10
f 15/42/11 19/43/11 29/44/11
f 19/43/11 15/42/11 16/41/11
f 22/18/12 30/19/12 21/20/12
f 30/19/12 22/18/12 28/17/12
f 24/39/5 5/38/5 3/37/5
f 5/38/5 24/39/5 25/40/5
f 30/31/7 19/30/7 21/29/7
f 19/30/7 30/31/7 29/32/7

usemtl ribbon

f 33/49/4 32/48/4 31/47/4
f 32/48/4 33/49/4 34/50/4
f 34/50/4 33/49/4 35/51/4
f 34/50/4 35/51/4 36/52/4
f 36/52/4 35/51/4 37/53/4
f 36/52/4 37/53/4 38/54/4
f 38/54/4 37/53/4 39/55/4
f 32/48/4 40/56/4 31/47/4
f 40/56/4 32/48/4 41/57/4
f 40/56/4 41/57/4 42/58/4
f 42/58/4 41/57/4 43/59/4
f 42/58/4 43/59/4 44/60/4
f 44/60/4 43/59/4 38/54/4
f 44/60/4 38/54/4 39/55/4
f 46/63/13 39/62/13 45/61/13
f 39/62/13 46/63/13 44/64/13
f 40/67/14 47/66/14 31/65/14
f 47/66/14 40/67/14 48/68/14
f 48/68/14 40/67/14 49/69/14
f 35/72/15 51/71/15 50/70/15
f 51/71/15 35/72/15 33/73/15
f 44/76/16 46/75/16 42/74/16
f 33/79/17 47/78/17 51/77/17
f 47/78/17 33/79/17 31/80/17
f 40/83/18 46/82/18 49/81/18
f 46/82/18 40/83/18 42/84/18
f 37/87/19 50/86/19 52/85/19
f 50/86/19 37/87/19 35/88/19
f 45/91/20 37/90/20 52/89/20
f 37/90/20 45/91/20 39/92/20

usemtl snow

f 55/95/21 54/94/21 53/93/21
f 54/94/21 55/95/21 56/96/21
f 56/96/21 55/95/21 57/97/21
f 58/100/22 57/99/22 55/98/22
f 61/103/23 60/102/23 59/101/23
f 10/106/24 32/105/24 34/104/24
f 32/105/24 10/106/24 2/107/24
f 41/110/25 62/109/25 43/108/25
f 62/109/25 41/110/25 4/111/25
f 62/109/25 4/111/25 63/112/25
f 63/112/25 4/111/25 64/113/25
f 65/114/25 43/108/25 62/109/25
f 43/108/25 65/114/25 6/115/25
f 6/115/25 65/114/25 64/113/25
f 6/115/25 64/113/25 4/111/25
f 43/104/26 7/107/26 38/105/26
f 7/107/26 43/104/26 6/106/26
f 67/118/4 66/117/4 53/116/4
f 66/117/4 67/118/4 68/119/4
f 68/119/4 67/118/4 60/120/4
f 68/119/4 60/120/4 69/121/4
f 69/121/4 60/120/4 61/122/4
f 69/121/4 61/122/4 70/123/4
f 70/123/4 61/122/4 71/124/4
f 66/117/4 55/125/4 53/116/4
f 55/125/4 66/117/4 72/126/4
f 55/125/4 72/126/4 58/127/4
f 58/127/4 72/126/4 73/128/4
f 58/127/4 73/128/4 74/129/4
f 74/129/4 73/128/4 70/123/4
f 74/129/4 70/123/4 71/124/4
f 12/132/27 34/131/27 36/130/27
f 34/131/27 12/132/27 10/133/27
f 76/136/28 71/135/28 75/134/28
f 71/135/28 76/136/28 74/137/28
f 59/140/29 78/139/29 77/138/29
f 78/139/29 59/140/29 67/141/29
f 67/141/29 59/140/29 60/142/29
f 67/137/30 54/134/30 78/136/30
f 54/134/30 67/137/30 53/135/30
f 38/145/31 12/144/31 36/143/31
f 12/144/31 38/145/31 7/146/31
f 4/144/32 32/145/32 2/146/32
f 32/145/32 4/144/32 41/143/32
f 57/149/33 76/148/33 56/147/33
f 76/148/33 57/149/33 74/150/33
f 74/150/33 57/149/33 58/151/33
f 56/154/1 78/153/1 54/152/1
f 78/153/1 56/154/1 76/155/1
f 78/153/1 76/155/1 77/156/1
f 77/156/1 76/155/1 75/157/1
f 75/160/34 59/159/34 77/158/34
f 59/159/34 75/160/34 61/161/34
f 61/161/34 75/160/34 71/162/34
f 51/71/15 79/163/35 50/70/15
f 49/81/18 73/165/36 72/164/36
f 73/165/36 49/81/18 46/82/18
f 73/168/37 80/167/37 70/166/37
f 80/167/37 73/168/37 81/169/37
f 81/169/37 73/168/37 82/170/37
f 82/170/37 73/168/37 46/63/13
f 45/61/13 82/170/37 46/63/13
f 82/170/37 45/61/13 83/171/37
f 52/85/19 68/173/38 69/172/38
f 68/173/38 52/85/19 79/174/38
f 79/174/38 52/85/19 50/86/19
f 70/176/39 52/89/20 69/175/39
f 52/89/20 70/176/39 84/177/39
f 52/89/20 84/177/39 85/178/39
f 84/177/39 70/176/39 80/179/39
f 85/178/39 45/91/20 52/89/20
f 45/91/20 85/178/39 83/180/39
f 47/78/17 86/181/40 51/77/17
f 86/181/40 47/78/17 87/182/40
f 88/183/40 51/77/17 86/181/40
f 66/184/40 51/77/17 88/183/40
f 66/184/40 79/185/40 51/77/17
f 79/185/40 66/184/40 68/186/40
f 66/184/40 88/183/40 89/187/40
f 47/66/14 90/189/41 87/188/41
f 90/189/41 47/66/14 48/68/14
f 72/190/41 90/189/41 48/68/14
f 72/190/41 91/191/41 90/189/41
f 66/192/41 91/191/41 72/190/41
f 91/191/41 66/192/41 89/193/41
f 72/190/41 48/68/14 49/69/14

usemtl wood

f 94/196/42 93/195/42 92/194/42
f 93/195/42 94/196/42 95/197/42
f 96/200/7 93/199/7 95/198/7
f 97/203/43 80/202/43 81/201/43
f 93/204/43 80/202/43 97/203/43
f 80/202/43 93/204/43 84/205/43
f 97/208/44 92/207/44 93/206/44
f 92/207/44 97/208/44 98/209/44
f 101/212/45 100/211/45 99/210/45
f 100/211/45 101/212/45 102/213/45
f 94/216/46 103/215/46 95/214/46
f 103/215/46 94/216/46 104/217/46
f 86/220/47 106/219/47 105/218/47
f 106/219/47 86/220/47 87/221/47
f 90/222/47 106/219/47 87/221/47
f 96/219/48 83/223/48 85/222/48
f 107/218/48 83/223/48 96/219/48
f 83/223/48 107/218/48 82/220/48
f 97/226/49 104/225/49 98/224/49
f 104/225/49 97/226/49 103/227/49
f 104/230/50 92/229/50 98/228/50
f 92/229/50 104/230/50 94/231/50
f 110/234/51 109/233/51 108/232/51
f 109/233/51 110/234/51 111/235/51
f 96/238/52 84/237/52 93/236/52
f 84/237/52 96/238/52 85/239/52
f 114/226/53 113/225/53 112/224/53
f 113/225/53 114/226/53 108/227/53
f 111/242/54 106/241/54 109/240/54
f 106/241/54 111/242/54 115/243/54
f 107/246/55 101/245/55 103/244/55
f 101/245/55 107/246/55 102/247/55
f 107/250/5 103/249/5 97/248/5
f 91/205/56 114/203/56 116/204/56
f 114/203/56 91/205/56 89/202/56
f 88/201/56 114/203/56 89/202/56
f 109/214/57 113/217/57 108/215/57
f 113/217/57 109/214/57 117/216/57
f 105/250/7 108/249/7 114/248/7
f 112/209/58 116/206/58 114/208/58
f 116/206/58 112/209/58 118/207/58
f 100/253/59 107/252/59 96/251/59
f 107/252/59 100/253/59 102/254/59
f 81/257/60 107/256/60 97/255/60
f 107/256/60 81/257/60 82/258/60
f 103/232/61 99/235/61 95/233/61
f 99/235/61 103/232/61 101/234/61
f 115/211/62 110/212/62 119/213/62
f 110/212/62 115/211/62 111/210/62
f 117/196/63 116/195/63 118/194/63
f 116/195/63 117/196/63 109/197/63
f 106/200/5 116/199/5 109/198/5
f 106/238/64 91/237/64 116/236/64
f 91/237/64 106/238/64 90/239/64
f 88/257/65 105/256/65 114/255/65
f 105/256/65 88/257/65 86/258/65
f 105/246/66 110/245/66 108/244/66
f 110/245/66 105/246/66 119/247/66
f 118/229/67 113/230/67 117/231/67
f 113/230/67 118/229/67 112/228/67
f 99/242/68 96/241/68 95/240/68
f 96/241/68 99/242/68 100/243/68
f 105/252/69 115/253/69 119/254/69
f 115/253/69 105/252/69 106/251/69

usemtl carrot

f 122/261/70 121/260/70 120/259/70
f 121/260/70 122/261/70 123/262/70
f 65/265/71 123/264/71 64/263/71
f 123/264/71 65/265/71 121/266/71
f 120/269/72 65/268/72 62/267/72
f 65/268/72 120/269/72 121/270/72
f 122/273/73 62/272/73 63/271/73
f 62/272/73 122/273/73 120/274/73
f 64/277/74 122/276/74 63/275/74
f 122/276/74 64/277/74 123/278/74

