# Created by Kenney (www.kenney.nl)

mtllib treePineSnow.mtl

g treePineSnow

v -0.209635 0.618006 -0.118622
v -0.154798 0.759481 -0.099094
v -0.215521 0.61894 0.124491
v -0.16657 0.742109 0.094442
v 0.196695 0.617692 -0.112747
v 0.199727 0.620828 0.117847
v 0.151306 0.799167 -0.089384
v 0.157371 0.7862 0.079115
v -0.000974 0.617144 -0.230187
v 0.009245 0.787532 -0.176901
v -0.002618 0.62141 0.243068
v 0.005958 0.757587 0.184232
v 0.27107 0.312658 -0.156502
v 0.216632 0.438976 -0.125072
v 0 0.31735 -0.31067
v 0 0.448359 -0.245475
v 0.161307 0.964192 -0.092335
v 0.157917 0.959164 0.090022
v 0.107616 1.117984 -0.060894
v 0.100836 1.12643 0.07739399
v 0.002618 0.958207 -0.182706
v -0.014472 1.122457 -0.12681
v -0.150357 0.940989 0.085915
v -0.125134 1.141466 0.072412
v 0.000743 0.947451 0.175654
v -0.018223 1.13795 0.137062
v -0.263748 0.329649 -0.152275
v -0.201987 0.472958 -0.116617
v 0 0.332974 0.302895
v -0.260604 0.336944 0.15046
v 0 0.479608 0.229925
v -0.195699 0.487548 0.112987
v 0.267462 0.32103 0.154419
v 0.209415 0.455721 0.120906
v 0 1.369002 0.08105
v -0.070158 1.371407 0.040314
v 0.012215 1.598415 -0.010402
v -0.070158 1.366727 -0.040736
v 0.070158 1.361916 0.040736
v 0.070158 1.357235 -0.040314
v 7.6E-05 1.361121 -0.080612
v -0.151459 0.94668 -0.090237
v -0.127336 1.134346 -0.053468
v -0.175581 0.759013 -0.127006
v -0.175581 0.740511 0.099418
v 0.128101 1.116056 -0.070226
v -0.012215 1.120867 -0.151698
v 0.019708 0.756953 0.214246
v 0.325508 0.18634 -0.187932
v 0.325508 0.18634 0.187932
v -0.152531 1.135038 -0.07107
v -0.152531 1.1444 0.091031
v -0.012215 1.139589 0.172503
v 0 0.18634 0.375865
v -0.325508 0.18634 0.187932
v 0.128101 1.125417 0.091874
v -0.325508 0.18634 -0.187932
v 0 0.18634 -0.375865
v 0.214998 0.791897 0.102649
v 0.214998 0.8104 -0.123775
v 0.019708 0.7939579 -0.238603
v 0.242084 0.436218 -0.13611
v -0.011194 0.446755 -0.283473
v -0.264472 0.476532 -0.138149
v -0.264472 0.495771 0.15454
v -0.011194 0.485233 0.301903
v 0.083889 0.18634 0.048433
v 0 0.18634 0.096867
v -0.083889 0.18634 0.048433
v -0.083889 0.18634 -0.048433
v 0.083889 0.18634 -0.048433
v 0 0.18634 -0.096867
v 0.242084 0.455457 0.156579
v 0 0 -0.130305
v 0.112847 0 -0.065152
v 0 0.057596 -0.110428
v 0.095633 0.057596 -0.055214
v -0.112847 0 -0.065152
v -0.095633 0.057596 -0.055214
v -0.112847 0 0.065152
v -0.095633 0.057596 0.055214
v 0.095633 0.057596 0.055214
v 0 0.057596 0.110428
v 0.112847 0 0.065152
v 0 0 0.130305

vn -0.9310222 0.3641763 -0.02394057
vn 0.969503 0.2445517 -0.01607465
vn -0.4501664 0.2910094 -0.8441942
vn 0.4997823 0.3168145 0.8061305
vn -0.4539432 0.3773372 0.8071878
vn 0.4963831 0.2318516 -0.8365696
vn 0.4591743 0.3957749 -0.795312
vn 0.9454619 0.3246506 0.02652691
vn 0.4579722 0.3287356 -0.8259505
vn -0.5106869 0.1215799 0.851127
vn -0.4591722 0.3957763 -0.7953125
vn -0.4591731 0.395775 0.7953128
vn -0.9183475 0.395775 5.599479E-07
vn 0.9183483 0.3957734 7.42822E-07
vn 0.4591749 0.3957735 0.7953123
vn 0.4539934 0.2201099 0.8633897
vn -0.4614495 0.3496072 0.8153767
vn -0.9412351 0.3371904 -0.01947009
vn 0.4980269 0.2980967 0.8143142
vn 0.9718589 0.2351716 -0.01358221
vn -0.4582754 0.2736484 -0.845636
vn 0.4951823 0.2231034 -0.8396543
vn -0.5135154 0.2280808 -0.8272128
vn -0.9920398 0.1255065 0.01025885
vn -0.9920399 0.1255061 0.01025761
vn 0.4951808 0.2231037 -0.8396551
vn -0.5106888 0.1215823 0.8511255
vn 0.918349 0.3957717 0
vn -0.9412351 0.3371902 -0.01947331
vn -0.4614473 0.349611 0.8153763
vn -0.4591751 0.3957713 0.7953132
vn 0.9718588 0.2351721 -0.01358108
vn 0.4980302 0.298098 0.8143116
vn 0.4591755 0.3957733 0.7953121
vn -0.4591752 0.3957711 -0.7953132
vn 0.4539931 0.2201064 0.8633907
vn -0.4582782 0.2736489 -0.8456342
vn 0.4591755 0.3957736 -0.795312
vn -0.9183497 0.3957697 0
vn 0.1306716 -0.9881321 -0.08074629
vn 0.4963825 0.2318504 -0.8365703
vn -0.9310218 0.3641775 -0.02393888
vn -0.4539429 0.3773344 0.8071893
vn -0.06754754 -0.9960566 0.05752177
vn 0 -1 0
vn 0.9695021 0.2445556 -0.01607449
vn -0.0794253 -0.9946943 0.06538324
vn -0.4501641 0.2910083 -0.8441958
vn 0.4997822 0.316815 0.8061302
vn -0.5135168 0.2280812 -0.8272119
vn 0.4579702 0.3287366 -0.8259513
vn 0.9454622 0.3246495 0.02652887
vn 0.4790649 0.2863553 -0.8297575
vn -0.9581224 0.2863588 0
vn 0.4979357 0.09084526 0.8624426
vn -0.4979357 0.09084526 0.8624426
vn -0.4790649 0.2863553 -0.8297575
vn 0.9581224 0.2863588 0
vn -0.4790649 0.2863553 0.8297575
vn 0.4790649 0.2863553 0.8297575
vn -0.9958652 0.09084261 0
vn 0.4979357 0.09084526 -0.8624426
vn -0.4979357 0.09084526 -0.8624426
vn 0.9958652 0.09084261 0

vt -4.456455 19.61174
vt -3.743388 25.59231
vt 5.117716 19.65122
vt 3.885536 24.85794
vt 4.30987 21.66866
vt -4.769365 21.79599
vt 3.419817 29.03708
vt -3.217048 28.51058
vt -4.230341 20.91311
vt -3.598229 27.92475
vt 5.085164 20.94857
vt 3.541906 26.77043
vt 4.238334 20.62101
vt -5.130071 20.64516
vt 3.624556 27.48531
vt -3.62255 26.29764
vt -4.993302 19.38494
vt -3.893406 24.6212
vt 4.600984 19.48995
vt 3.759835 25.27921
vt 4.657451 21.83248
vt -4.394686 21.85466
vt 3.240932 28.72858
vt -3.32725 29.19948
vt -6.161509 7.080554
vt -4.924121 12.49587
vt 6.115558 7.281699
vt 4.832191 12.89813
vt 3.811918 33.87632
vt -3.368411 33.66703
vt 2.515285 40.27787
vt -2.934469 40.62943
vt 3.397985 33.54358
vt -3.791209 33.79306
vt 2.91928 40.39065
vt -2.54281 40.20419
vt -3.335659 36.04906
vt -2.757664 44.00085
vt 3.58314 36.30537
vt 2.161138 43.86139
vt -6.115535 7.281671
vt -4.832172 12.89811
vt 5.995094 7.808938
vt 4.591248 13.95268
vt 5.962491 7.951504
vt -5.923618 8.121698
vt 4.526076 14.23778
vt -4.448306 14.57818
vt -5.995085 7.808958
vt -4.591225 13.95269
vt 5.923616 8.121697
vt 4.448302 14.57818
vt 6.161505 7.080577
vt -6.07948 7.439485
vt 4.924101 12.49589
vt -4.760072 13.21377
vt 6.079493 7.439487
vt -5.962511 7.951531
vt 4.760059 13.21376
vt -4.526091 14.23781
vt -3.192639 35.03614
vt -3.146409 42.72466
vt 3.853343 35.50888
vt 2.095664 42.25972
vt 1.571636 49.52569
vt -1.622139 49.62675
vt 0.2168253 59.16604
vt -1.546312 49.71461
vt -0.4193857 59.4036
vt 1.64395 49.91032
vt 1.519601 50.34355
vt -1.664869 50.63581
vt 0.6239305 60.09801
vt 0.4027673 61.05036
vt 1.548412 51.28109
vt -1.642221 51.4707
vt 1.664308 51.00829
vt -1.514778 50.77883
vt -0.617934 60.49186
vt 1.609619 51.62652
vt -1.572941 51.46957
vt -0.2062009 61.21037
vt 3.192442 34.88276
vt -3.881359 35.34887
vt 3.149038 42.4712
vt -2.149065 41.99045
vt -3.614109 36.23242
vt -2.156767 43.67973
vt 3.321088 36.00658
vt 2.79977 43.96228
vt -5.071441 28.78507
vt 3.842413 28.05084
vt -2.93969 41.72881
vt 3.448105 41.92312
vt -3.913673 28.09721
vt 5.005124 28.74937
vt 7.398898 1.665288
vt -7.398898 1.665288
vt -2.673218 40.02557
vt 3.707346 40.41708
vt 2.926454 39.88524
vt -3.461096 40.08741
vt 7.398928 1.665285
vt -7.398895 1.665292
vt 2.694063 41.51186
vt -3.687204 41.89104
vt 2.415246 40.58906
vt -3.953712 41.17358
vt 7.398883 1.665258
vt -7.39894 1.665256
vt 7.398895 1.665294
vt -7.398928 1.665287
vt -3.238899 27.34772
vt 5.611044 28.75805
vt -2.422813 40.94462
vt 3.94653 41.52468
vt 7.398941 1.665252
vt -7.398882 1.665254
vt -7.398901 1.665319
vt 7.398895 1.665318
vt -0.3040826 14.54729
vt -5.906588 8.344721
vt -7.887408 9.805024
vt -7.583333 0.8485685
vt -6.293548 1.011144
vt 0.3040806 -3.365569
vt 0.284247 -2.955934
vt -0.13775 11.66823
vt 7.583352 10.33312
vt 5.733385 8.686191
vt 7.887406 1.376696
vt 6.522468 1.496522
vt -5.462129 14.5099
vt 6.073996 14.93636
vt -5.169503 13.63119
vt 6.349879 14.44448
vt 5.442101 13.70074
vt -6.093209 14.14874
vt 1.164848 -1.711739
vt 4.893707 2.891718
vt 6.023684 2.442302
vt 4.858866 8.731062
vt 0.9216814 -0.856139
vt 3.64319 8.003635
vt -1.164817 10.86575
vt -1.023591 9.564156
vt -4.852963 6.404568
vt -4.858835 0.4229537
vt -4.170445 1.128663
vt -6.023683 6.711684
vt 12.81528 7.398898
vt 12.81528 -7.398898
vt 0 14.79783
vt 3.302716 1.906811
vt 0 3.813661
vt -12.81528 7.398898
vt -3.302716 1.906811
vt -3.302716 -1.906811
vt 3.302716 -1.906811
vt 0 -14.79783
vt 0 -3.813661
vt -12.81528 -7.398898
vt 5.199924 14.30022
vt -6.321682 15.08138
vt 1.920242 -8.940189
vt 8.915008 -1.476545
vt 10.81676 -1.577474
vt 8.896489 9.817863
vt 1.618892 -7.884763
vt 6.988755 7.665162
vt -1.46244 10.7037
vt -1.920238 13.85054
vt -8.598777 5.120059
vt -8.896485 -4.907516
vt -7.46141 -4.293726
vt -10.81676 6.487825
vt -4.862388 13.90143
vt 6.628468 15.12678
vt 4.852145 13.75673
vt -6.637572 14.99269
vt 3.235799 27.29427
vt -5.613688 28.7073
vt 3.87669 26.69651
vt -5.039647 27.38193
vt 5.108527 27.47479
vt -3.802296 26.70461
vt 2.565076 -1.27222
vt -2.565037 -1.272218
vt 2.173794 1.094449
vt -2.17375 1.094446
vt -2.565039 -1.272233
vt -2.173779 1.094436
vt 2.565039 -1.272233
vt 2.173779 1.094436
vt 2.17375 1.916142
vt -2.173794 1.916142
vt 1.906819 7.00585
vt -1.906843 7.005849
vt 2.173794 1.916142
vt -2.17375 1.916142
vt 1.906843 7.005849
vt -1.906819 7.00585
vt 2.565037 -1.272218
vt -2.565076 -1.27222
vt 2.17375 1.094446
vt -2.173794 1.094449
vt -2.173779 1.916154
vt -1.906811 7.00586
vt 2.173779 1.916154
vt 1.906811 7.00586
vt 4.442795 2.565039
vt 4.442795 -2.565039
vt 0 5.130118
vt 0 -5.130118
vt -4.442795 2.565039
vt -4.442795 -2.565039

usemtl snow

f 3/3/1 2/2/1 1/1/1
f 2/2/1 3/3/1 4/4/1
f 7/7/2 6/6/2 5/5/2
f 6/6/2 7/7/2 8/8/2
f 1/11/3 10/10/3 9/9/3
f 10/10/3 1/11/3 2/12/3
f 8/15/4 11/14/4 6/13/4
f 11/14/4 8/15/4 12/16/4
f 11/19/5 4/18/5 3/17/5
f 4/18/5 11/19/5 12/20/5
f 10/23/6 5/22/6 9/21/6
f 5/22/6 10/23/6 7/24/6
f 15/27/7 14/26/7 13/25/7
f 14/26/7 15/27/7 16/28/7
f 19/31/8 18/30/8 17/29/8
f 18/30/8 19/31/8 20/32/8
f 22/35/9 17/34/9 21/33/9
f 17/34/9 22/35/9 19/36/9
f 25/39/10 24/38/10 23/37/10
f 24/38/10 25/39/10 26/40/10
f 27/43/11 16/42/11 15/41/11
f 16/42/11 27/43/11 28/44/11
f 31/47/12 30/46/12 29/45/12
f 30/46/12 31/47/12 32/48/12
f 30/51/13 28/50/13 27/49/13
f 28/50/13 30/51/13 32/52/13
f 14/55/14 33/54/14 13/53/14
f 33/54/14 14/55/14 34/56/14
f 34/59/15 29/58/15 33/57/15
f 29/58/15 34/59/15 31/60/15
f 18/63/16 26/62/16 25/61/16
f 26/62/16 18/63/16 20/64/16
f 37/67/17 36/66/17 35/65/17
f 36/70/18 37/69/18 38/68/18
f 37/73/19 35/72/19 39/71/19
f 39/76/20 40/75/20 37/74/20
f 37/79/21 41/78/21 38/77/21
f 37/82/22 40/81/22 41/80/22
f 43/85/23 21/84/23 42/83/23
f 21/84/23 43/85/23 22/86/23
f 23/89/24 43/88/24 42/87/24
f 43/88/24 23/89/24 24/90/24

usemtl leaves

f 45/92/25 42/87/24 44/91/25
f 42/87/24 45/92/25 23/89/24
f 47/94/26 40/81/22 46/93/26
f 40/81/22 47/94/26 41/80/22
f 48/96/27 23/37/10 45/95/27
f 23/37/10 48/96/27 25/39/10
f 13/53/14 50/98/28 49/97/28
f 50/98/28 13/53/14 33/54/14
f 52/100/29 38/68/18 51/99/29
f 38/68/18 52/100/29 36/70/18
f 35/65/17 52/102/30 53/101/30
f 52/102/30 35/65/17 36/66/17
f 29/45/12 55/104/31 54/103/31
f 55/104/31 29/45/12 30/46/12
f 40/75/20 56/106/32 46/105/32
f 56/106/32 40/75/20 39/76/20
f 39/71/19 53/108/33 56/107/33
f 53/108/33 39/71/19 35/72/19
f 33/57/15 54/110/34 50/109/34
f 54/110/34 33/57/15 29/58/15
f 27/43/11 58/112/35 57/111/35
f 58/112/35 27/43/11 15/41/11
f 59/114/36 25/61/16 48/113/36
f 25/61/16 59/114/36 18/63/16
f 51/116/37 41/78/21 47/115/37
f 41/78/21 51/116/37 38/77/21
f 15/27/7 49/118/38 58/117/38
f 49/118/38 15/27/7 13/25/7
f 55/120/39 27/49/13 57/119/39
f 27/49/13 55/120/39 30/51/13
f 59/123/40 8/122/40 60/121/40
f 8/122/40 59/123/40 48/124/40
f 8/122/40 48/124/40 12/125/40
f 12/125/40 48/124/40 45/126/40
f 12/125/40 45/126/40 4/127/40
f 7/128/40 60/121/40 8/122/40
f 60/121/40 7/128/40 61/129/40
f 61/129/40 7/128/40 10/130/40
f 61/129/40 10/130/40 44/131/40
f 44/131/40 4/127/40 45/126/40
f 44/131/40 10/130/40 2/132/40
f 44/131/40 2/132/40 4/127/40
f 63/134/41 5/22/6 62/133/41
f 5/22/6 63/134/41 9/21/6
f 65/136/42 1/1/1 64/135/42
f 1/1/1 65/136/42 3/3/1
f 11/19/5 65/138/43 66/137/43
f 65/138/43 11/19/5 3/17/5
f 56/141/44 20/140/44 46/139/44
f 20/140/44 56/141/44 53/142/44
f 46/139/44 20/140/44 19/143/44
f 20/140/44 53/142/44 26/144/44
f 26/144/44 53/142/44 52/145/44
f 26/144/44 52/145/44 24/146/44
f 24/146/44 52/145/44 43/147/44
f 19/143/44 47/148/44 46/139/44
f 47/148/44 19/143/44 22/149/44
f 47/148/44 22/149/44 51/150/44
f 51/150/44 22/149/44 43/147/44
f 51/150/44 43/147/44 52/145/44
f 54/153/45 49/152/45 50/151/45
f 49/152/45 54/153/45 67/154/45
f 67/154/45 54/153/45 68/155/45
f 68/155/45 54/153/45 55/156/45
f 68/155/45 55/156/45 69/157/45
f 69/157/45 55/156/45 70/158/45
f 71/159/45 49/152/45 67/154/45
f 49/152/45 71/159/45 58/160/45
f 58/160/45 71/159/45 72/161/45
f 58/160/45 72/161/45 70/158/45
f 58/160/45 70/158/45 57/162/45
f 57/162/45 70/158/45 55/156/45
f 5/5/2 73/164/46 62/163/46
f 73/164/46 5/5/2 6/6/2
f 73/167/47 34/166/47 62/165/47
f 34/166/47 73/167/47 66/168/47
f 62/165/47 34/166/47 14/169/47
f 34/166/47 66/168/47 31/170/47
f 31/170/47 66/168/47 32/171/47
f 32/171/47 66/168/47 65/172/47
f 32/171/47 65/172/47 28/173/47
f 14/169/47 63/174/47 62/165/47
f 63/174/47 14/169/47 16/175/47
f 63/174/47 16/175/47 28/173/47
f 63/174/47 28/173/47 64/176/47
f 64/176/47 28/173/47 65/172/47
f 64/178/48 9/9/3 63/177/48
f 9/9/3 64/178/48 1/11/3
f 6/13/4 66/180/49 73/179/49
f 66/180/49 6/13/4 11/14/4
f 42/83/23 61/182/50 44/181/50
f 61/182/50 42/83/23 21/84/23
f 21/33/9 60/184/51 61/183/51
f 60/184/51 21/33/9 17/34/9
f 17/29/8 59/186/52 60/185/52
f 59/186/52 17/29/8 18/30/8

usemtl wood

f 76/189/53 75/188/53 74/187/53
f 75/188/53 76/189/53 77/190/53
f 80/193/54 79/192/54 78/191/54
f 79/192/54 80/193/54 81/194/54
f 67/197/55 83/196/55 82/195/55
f 83/196/55 67/197/55 68/198/55
f 68/201/56 81/200/56 83/199/56
f 81/200/56 68/201/56 69/202/56
f 79/205/57 74/204/57 78/203/57
f 74/204/57 79/205/57 76/206/57
f 77/194/58 84/191/58 75/193/58
f 84/191/58 77/194/58 82/192/58
f 83/189/59 80/188/59 85/187/59
f 80/188/59 83/189/59 81/190/59
f 82/205/60 85/204/60 84/203/60
f 85/204/60 82/205/60 83/206/60
f 81/209/61 70/208/61 79/207/61
f 70/208/61 81/209/61 69/210/61
f 72/201/62 77/200/62 76/199/62
f 77/200/62 72/201/62 71/202/62
f 70/197/63 76/196/63 79/195/63
f 76/196/63 70/197/63 72/198/63
f 85/213/45 75/212/45 84/211/45
f 75/212/45 85/213/45 74/214/45
f 74/214/45 85/213/45 80/215/45
f 74/214/45 80/215/45 78/216/45
f 71/210/64 82/207/64 77/209/64
f 82/207/64 71/210/64 67/208/64

